<?xml version="1.0" encoding="utf-8"?>
<!-- Generator: Adobe Illustrator 17.0.0, SVG Export Plug-In . SVG Version: 6.00 Build 0)  -->
<!DOCTYPE svg PUBLIC "-//W3C//DTD SVG 1.1//EN" "http://www.w3.org/Graphics/SVG/1.1/DTD/svg11.dtd">
<svg version="1.1" id="Layer_1" xmlns="http://www.w3.org/2000/svg" xmlns:xlink="http://www.w3.org/1999/xlink" x="0px" y="0px"
	 width="159.201px" height="159.201px" viewBox="0 0 159.201 159.201" enable-background="new 0 0 159.201 159.201"
	 xml:space="preserve">
<circle cx="79.537" cy="79.664" r="75"/>
<g>
	<path fill="#FFFFFF" d="M41.972,60.173v36.811h13.099v4.171H37.362V60.173H41.972z"/>
	<path fill="#FFFFFF" d="M101.002,80.664c0,11.636-9.422,21.076-21.058,21.076c-11.617,0-21.04-9.44-21.04-21.076
		c0-11.637,9.422-21.076,21.04-21.076C91.579,59.588,101.002,69.028,101.002,80.664z M63.514,80.664
		c0,9.202,7.355,16.722,16.429,16.722c9.093,0,16.448-7.52,16.448-16.722c0-9.203-7.336-16.723-16.448-16.723
		C70.851,63.942,63.514,71.461,63.514,80.664z"/>
	<path fill="#FFFFFF" d="M114.612,60.173v36.811h13.099v4.171h-17.709V60.173H114.612z"/>
</g>
</svg>
